<svg xmlns="http://www.w3.org/2000/svg" viewBox="0 0 1088 1536">
<defs>
  <linearGradient id="bg" x1="0" y1="0" x2="1" y2="1"><stop offset="0" stop-color="#b43a2e"/><stop offset=".42" stop-color="#4c2020"/><stop offset="1" stop-color="#160f12"/></linearGradient>
  <linearGradient id="road" x1="0" y1="0" x2="0" y2="1"><stop stop-color="#52252a"/><stop offset="1" stop-color="#120f12"/></linearGradient>
  <filter id="blur"><feGaussianBlur stdDeviation="18"/></filter>
  <filter id="glow"><feGaussianBlur stdDeviation="7"/></filter>
</defs>
<rect width="1088" height="1536" fill="url(#bg)"/>
<path d="M-80 90 C210 30 440 70 660 210 S1040 180 1180 90" fill="none" stroke="#ffd3a0" stroke-width="25" opacity=".55" filter="url(#glow)"/>
<path d="M-50 115 C250 55 455 100 690 235 S1060 200 1180 125" fill="none" stroke="#ff6b3d" stroke-width="10" opacity=".8"/>
<rect x="0" y="390" width="1088" height="500" fill="#3a181b" opacity=".6"/>
<rect y="880" width="1088" height="656" fill="url(#road)"/>
<circle cx="565" cy="270" r="50" fill="#ffd58c" opacity=".85" filter="url(#blur)"/>
<circle cx="565" cy="270" r="22" fill="#fff2c9"/>
<g opacity=".45" filter="url(#blur)"><rect x="90" y="420" width="180" height="260" fill="#8d3028"/><rect x="300" y="430" width="160" height="250" fill="#5d2927"/><rect x="500" y="440" width="190" height="220" fill="#68282a"/></g>
<!-- stylized vintage car -->
<path d="M250 930 Q300 820 470 795 L760 790 Q850 820 930 930 L1000 1000 L1000 1180 Q920 1230 310 1200 Q245 1150 250 930Z" fill="#171a19" stroke="#5e4843" stroke-width="10"/>
<path d="M360 900 Q410 825 500 815 L745 815 Q810 830 860 900Z" fill="#242b2a" stroke="#79534a" stroke-width="7"/>
<path d="M315 965 L910 965" stroke="#a76a55" stroke-width="9" opacity=".7"/>
<path d="M270 1040 Q590 1010 990 1040" stroke="#392e2d" stroke-width="55"/>
<rect x="360" y="1000" width="600" height="135" rx="25" fill="#0c1111" stroke="#6c4038" stroke-width="8"/>
<path d="M390 1030 L930 1030 M400 1065 L920 1065 M410 1100 L910 1100" stroke="#322d2d" stroke-width="8"/>
<circle cx="350" cy="1160" r="58" fill="#0b0b0b"/><circle cx="900" cy="1160" r="58" fill="#0b0b0b"/>
<circle cx="350" cy="1160" r="23" fill="#6c2b24"/><circle cx="900" cy="1160" r="23" fill="#6c2b24"/>
<g font-family="Arial Narrow,Arial,sans-serif" fill="#ddd0ca">
 <text x="55" y="245" font-size="175" font-weight="700" stroke="#2a1717" stroke-width="7">N</text>
 <text x="55" y="505" font-size="175" font-weight="700" stroke="#2a1717" stroke-width="7">O</text>
 <text x="55" y="765" font-size="175" font-weight="700" stroke="#2a1717" stroke-width="7">I</text>
 <text x="55" y="1025" font-size="175" font-weight="700" stroke="#2a1717" stroke-width="7">R</text>
 <text x="575" y="205" font-size="58" font-weight="300" letter-spacing="3">LOOK CLOSER.</text>
 <text x="650" y="350" font-size="54" font-weight="300" letter-spacing="3">THE CITY IS</text>
 <text x="825" y="470" font-size="55" font-weight="300" letter-spacing="2">ALIVE.</text>
 <text x="70" y="1330" font-family="monospace" font-size="30" letter-spacing="2">A VISUAL</text>
 <text x="70" y="1375" font-family="monospace" font-size="30" letter-spacing="2">JOURNAL OF</text>
 <text x="70" y="1420" font-family="monospace" font-size="30" letter-spacing="2">URBAN LIFE</text>
 <text x="1010" y="1420" font-size="32" transform="rotate(-90 1010 1420)">ISSUE 001</text>
 <text x="515" y="1480" font-size="25">2026</text>
</g>
<rect x="1" y="1" width="1086" height="1534" fill="none" stroke="#c74638" stroke-width="2"/>
</svg>